<svg xmlns="http://www.w3.org/2000/svg" xmlns:xlink="http://www.w3.org/1999/xlink" viewBox="0 0 1920 1080"><defs><style>.cls-3{fill:#fff;opacity:0;}</style></defs><g id="classroom-colored" data-name="Classroom Colored"><image width="1920" height="972" transform="scale(1 1.11)" xlink:href="Classroom Colored.jpeg"/></g><g id="classroom-click" class="click" data-name="Classroom Click"><polygon class="cls-3" points="1113 447 1106 427 1127 393 1152.96 393 1163 409 1163 429.62 1171 453 1178 460 1178 481.67 1178 521.4 1171 530 1150.22 530 1142 551.53 1124 560 1106 560 1098.16 540 1098.16 517.29 1098.16 503.59 1069 471 1058 453 1058 429.62 1068 421 1083 424 1097 439 1118 458.38 1113 447"/></g><g id="classroom-uncolored" data-name="Classroom Uncolored"><image width="1920" height="972" transform="scale(1 1.11)" xlink:href="Classroom Uncolored.jpg"/></g></svg>