<svg xmlns="http://www.w3.org/2000/svg" xmlns:xlink="http://www.w3.org/1999/xlink" viewBox="0 0 1920 1080"><defs><style>.cls-7{fill:#fff;opacity:0;}</style></defs><g id="snack-room-colored" data-name="Snack Room Colored"><image width="1920" height="972" transform="scale(1 1.11)" xlink:href="Snack Room Colored.jpeg"/></g><g id="snack-room-click" class="click" data-name="Snack Room Click"><polygon class="cls-7" points="715 149 668 178 647 213 647 263.86 657 308 647 337.84 647 389.89 653 419 647 470.71 689 513 754 531 809.12 531 872 513 960 509.07 1012 509 1097 513 1163 495 1205 432 1198 367 1205 288.52 1187 258 1205 214.55 1176 167 1117.34 149 1017 139 938 146 806 150 756 153 715 149"/></g><g id="snack-room-uncolored" data-name="Snack Room Uncolored"><image width="1920" height="972" transform="scale(1 1.11)" xlink:href="Snack Room Uncolored.jpg"/></g></svg>